# xmcd CD database file
#
# Track frame offsets:
#	150
#	12522
#	26527
#	38580
#	52225
#	64715
#	79837
#	92400
#	104165
#	118217
#	132222
#	147970
#	163165
#	176735
#	188027
#	203540
#	216822
#	235057
#	248650
#	259727
#
# Disc length: 3646 seconds
#
# Revision: 0
# Processed by: cddbd v1.5.2PL0 Copyright (c) Steve Scherf et al.
# Submitted via: CDex 1.51
#
DISCID=1b0e3c14
DTITLE=Various Artist - Just Jazz Disc 3
DYEAR=2005
DGENRE=Jazz
TTITLE0=Yes! I'm In The Barrel
TTITLE1=Swing Guitar
TTITLE2=Tia Juana
TTITLE3=Journey To Brazil
TTITLE4=Have A Little Dream On Me
TTITLE5=Two Moose In A Caboose
TTITLE6=Riverboat Shuffle
TTITLE7=What's Your Story (What's Your Jive)
TTITLE8=Cornet Chop Suey
TTITLE9=Ol' Man River
TTITLE10=Scott Joplin's New Rag
TTITLE11=Bump It
TTITLE12=Corrine, Corrina
TTITLE13=Ribs And Hot Sauce
TTITLE14=Ya Had It Comin' To Ya
TTITLE15=J-J-Jump
TTITLE16=Harlem Air Shaft
TTITLE17=Sunday
TTITLE18=Jungle Drums
TTITLE19=Potato Head Blues
EXTD=YEAR: 2005
EXTT0=
EXTT1=
EXTT2=
EXTT3=
EXTT4=
EXTT5=
EXTT6=
EXTT7=
EXTT8=
EXTT9=
EXTT10=
EXTT11=
EXTT12=
EXTT13=
EXTT14=
EXTT15=
EXTT16=
EXTT17=
EXTT18=
EXTT19=
PLAYORDER=
